<svg width="120" height="53" viewBox="0 0 120 53" fill="none" xmlns="http://www.w3.org/2000/svg">
<path d="M61.422 19.79V24.618H69.208V29.106H61.422V34.342H70.228V39H55.608V15.132H70.228V19.79H61.422ZM86.1745 39L81.2105 29.99H79.8165V39H74.0025V15.132H83.7605C85.6419 15.132 87.2399 15.4607 88.5545 16.118C89.8919 16.7753 90.8892 17.682 91.5465 18.838C92.2039 19.9713 92.5325 21.2407 92.5325 22.646C92.5325 24.2327 92.0792 25.6493 91.1725 26.896C90.2885 28.1427 88.9739 29.0267 87.2285 29.548L92.7365 39H86.1745ZM79.8165 25.876H83.4205C84.4859 25.876 85.2792 25.6153 85.8005 25.094C86.3445 24.5727 86.6165 23.836 86.6165 22.884C86.6165 21.9773 86.3445 21.2633 85.8005 20.742C85.2792 20.2207 84.4859 19.96 83.4205 19.96H79.8165V25.876ZM118.588 15.132L110.122 39H102.846L94.3802 15.132H100.568L106.484 33.152L112.434 15.132H118.588Z" fill="black"/>
<path d="M35 25L17.5 50L0 25L17.5 0" fill="#DCF6FF"/>
<path d="M41 25L23.5 50L6 25L23.5 0" fill="#26B2E6"/>
</svg>
